<?xml version="1.0" encoding="UTF-8"?>
<!DOCTYPE svg PUBLIC "-//W3C//DTD SVG 1.1//EN" "http://www.w3.org/Graphics/SVG/1.1/DTD/svg11.dtd">
<!-- Creator: CorelDRAW 2020 (64-Bit) -->
<svg xmlns="http://www.w3.org/2000/svg" xml:space="preserve" width="512px" height="512px" version="1.1" style="shape-rendering:geometricPrecision; text-rendering:geometricPrecision; image-rendering:optimizeQuality; fill-rule:evenodd; clip-rule:evenodd"
viewBox="0 0 512 512"
 xmlns:xlink="http://www.w3.org/1999/xlink"
 xmlns:xodm="http://www.corel.com/coreldraw/odm/2003">
 <defs>
  <style type="text/css">
   <![CDATA[
    .fil42 {fill:#171617}
    .fil26 {fill:#18142A}
    .fil20 {fill:#181436}
    .fil45 {fill:#194E6B}
    .fil1 {fill:#1A0A3C}
    .fil22 {fill:#1C123B}
    .fil43 {fill:#1F3266}
    .fil18 {fill:#241939}
    .fil13 {fill:#270619}
    .fil30 {fill:#272627}
    .fil29 {fill:#29243A}
    .fil46 {fill:#2D4F73}
    .fil36 {fill:#2E130B}
    .fil50 {fill:#336D90}
    .fil39 {fill:#3AB9CD}
    .fil38 {fill:#47C2CF}
    .fil41 {fill:#484848}
    .fil34 {fill:#4DB5CE}
    .fil48 {fill:#4E8EB1}
    .fil31 {fill:#532A33}
    .fil53 {fill:#554A52}
    .fil32 {fill:#571838}
    .fil49 {fill:#57A4D4}
    .fil47 {fill:#5AA3B3}
    .fil40 {fill:#676768}
    .fil52 {fill:#67AFCF}
    .fil9 {fill:#6A2539}
    .fil7 {fill:#742334}
    .fil44 {fill:#787778}
    .fil51 {fill:#982148}
    .fil10 {fill:#AA372A}
    .fil24 {fill:#AF8E4E}
    .fil35 {fill:#B73446}
    .fil25 {fill:#B92A39}
    .fil17 {fill:#C3BBD1}
    .fil14 {fill:#C82938}
    .fil11 {fill:#CC2B33}
    .fil16 {fill:#D19031}
    .fil28 {fill:#D6C76B}
    .fil54 {fill:#E4DCF5}
    .fil23 {fill:#EA9C19}
    .fil55 {fill:#EBE7F6}
    .fil21 {fill:#ECECEC}
    .fil19 {fill:#EDD550}
    .fil33 {fill:#EFA52E}
    .fil12 {fill:#F3F3F2}
    .fil3 {fill:#F4A30B}
    .fil5 {fill:#F59D08}
    .fil8 {fill:#F6F6F6}
    .fil27 {fill:#F7DA46}
    .fil6 {fill:#F7FAF7}
    .fil15 {fill:#F9DA38}
    .fil37 {fill:#F9F9F9}
    .fil2 {fill:#FBFBFB}
    .fil4 {fill:#FCFCFA}
    .fil0 {fill:#FDFDFD}
   ]]>
  </style>
 </defs>
 <g id="Слой_x0020_1">
  <metadata id="CorelCorpID_0Corel-Layer"/>
  <g id="_1847683985920">
   <path class="fil0" d="M358.288 168.005c0.656,-0.11 23.642,-22.502 37.74,-25.811 10.126,-2.377 15.684,3.446 22.138,9.642 2.383,2.288 13.878,15.701 14.784,16.169 2.01,2.333 1.807,-1.198 2.216,5.294 -3.585,2.299 -0.9,1.603 -6.157,1.805 -17.91,0.689 -19.265,-7.46 -32.162,-3.921 -12.788,3.509 -22.488,3.642 -35.88,1.892 -5.934,-0.775 -0.869,0.952 -5.133,-1.648 0.767,-4.624 -0.548,-1.682 2.454,-3.422zm-103.735 -168.005l2.889 0c69.874,0.337 122.47,25.155 175.128,69.43 19.303,16.232 39.523,48.954 52.007,70.993 8.677,15.319 20.669,50.242 23.338,68.662 1.277,8.817 1.92,18.035 3.524,26.476 0.235,1.24 0.42,2.756 0.561,4.486l0 24.455c-0.55,11.739 -1.674,23.575 -2.86,29.638 -9.602,49.059 -23.648,86.508 -56.807,126.193 -20.532,24.574 -38.224,38.952 -66.632,56.368 -24.358,14.932 -61.65,28.968 -89.963,32.299 12.184,-17.486 -6.777,-17.72 -7.708,-26 20.143,-5.876 83.45,15.433 83.782,-22.019 6.825,-3.378 8.438,-2.185 10.647,-10.423 19.285,-2.019 32.261,-5.987 45.062,-24.053 5.14,-7.254 4.634,-9.451 5.618,-17.415 13.77,-7.804 25.728,-16.343 31.956,-33.006 1.235,-3.305 1.812,-5.128 2.343,-8.745 0.775,-5.287 -0.458,-4.052 -0.426,-8.337 16.61,-14.998 13.726,-24.37 14.092,-37.223 0.11,-3.891 13.226,-19.911 0.993,-40.874 -3.086,-5.287 -0.263,-9.259 -2.621,-15.406 -2.403,-6.265 -5.534,-5.033 -10.937,-5.976 -3.133,-9.37 -3.149,-13.538 -9.282,-21.782 -5.923,-7.96 -18.074,-19.872 -22.121,-4.736 -2.819,2.834 -2.337,3.599 -2.046,8.998l-67.086 0.087 -0.09 -6.07 6.016 -0.45 -0.019 -13.574c22.183,-0.013 35.402,-2.969 51.088,-3l39.219 1.413c7.088,1.374 6.814,0.863 10.948,-2.982 -0.758,-4.207 0.752,-1.862 -2.641,-2.734 -7.786,-1.991 -25.354,-21.923 -51.005,-27.057 -19.915,-3.986 -45.373,22.993 -52.955,24.992 -2.328,-9.821 -8.612,-24.871 -12.503,-34.648 -14.575,-36.627 -6.834,-23.263 -9.263,-34.607l0.197 -18.546c5.09,0.1 9.197,1.007 13.712,-1.216 0.079,-6.537 0.364,-0.869 -1.778,-3.606 -5.21,-2.442 -9.22,-11.773 -16.896,-11.192 -6.522,0.493 -14.693,10.115 -18.738,10.192 -2.049,2.315 -2.923,-2.917 -1.634,4.418 4.399,3.046 9.657,1.488 15.479,-0.073 1.386,6.681 0.38,13.994 -0.136,20.827 1.937,8.604 0.572,9.394 -2.387,17.645l-11.978 32.817c-2.22,5.817 -2.973,10.974 -4.999,16.854 -4.976,-1.245 -27.583,-15.799 -31.681,-19.447l0.012 -5.055c3.638,-2.691 4.651,-0.696 6.966,-5.051 2.32,-4.363 1.185,-3.565 5.139,-6.916 -0.861,-9.15 -27.26,-73.747 -33.479,-91.685 -1.981,-5.716 0.799,-5.003 -0.319,-10.345 -0.724,-3.459 -2.486,-2.626 -2.838,-6.996 -0.276,-3.435 -0.28,-16.227 0.26,-19.303 11.002,-0.955 25.126,5.005 35.983,1.11 5.597,-2.007 22.902,-10.738 26.458,-14.805 -2.053,-4.19 -20.337,-12.634 -25.772,-15.397 -13.366,-6.793 -23.821,-2.589 -36.418,-4.45l-0.942 -9.573 -7.407 0.032c-2.07,9.8 -0.646,40.467 -0.647,52.388 -0.002,24.315 -3.615,10.293 -2.21,22.459 0.625,5.413 -17.647,51.26 -20.295,57.98 -3.246,8.234 -12.764,31.213 -13.601,38.635 3.595,3.828 2.389,3.495 4.856,7.221 2.34,3.535 3.278,2.239 6.6,4.664l-0.547 5.948c-5.575,3.822 -24.989,16.865 -30.241,18.386l-7.031 -20.838c-2.498,-6.822 -13.82,-35.666 -13.466,-40.427 0.275,-3.701 -1.821,-11.84 -1.28,-25.033 29.314,-0.175 16.006,-6.281 27.508,-3.165 4.373,1.185 8.247,1.334 11.917,-0.556 -0.667,-6.922 0.049,-1.748 -2.31,-3.813 -6.745,-3.74 -7.763,-13.842 -18.887,-12.372 -5.963,4.006 -5.856,5.62 -12.873,0.852 -5.263,-3.575 -7.041,-6.288 -13.856,-3.614 -8.872,3.481 -18.843,15.223 -23.106,16.678 -1.224,1.513 -3.797,-1.898 -1.492,3.968 1.945,4.949 21.404,2.021 24.448,2.023l0.336 18.839c0.256,12.639 1.283,7.618 -3.09,19.569 -2.04,5.575 -3.864,11.299 -6.038,16.882 -2.655,6.82 -9.619,28.715 -13.282,32.547 -11.5,-11.264 -35.435,-29.168 -52.871,-24.571 -32.816,8.651 -40.362,23.528 -51.374,28.317l-0.133 3.678 65.417 -1.29c5.945,-0.003 6.004,1.337 10.856,1.914 6.776,0.806 16.644,0.634 22.293,2.295 -0.747,11.826 -1.213,10.081 2.14,11.228l6.714 0.637 -0.46 8.629 -73.907 -0.298c-0.304,-2.675 1.864,-30.661 -18.041,-11.722 -8.699,8.276 -11.357,16.289 -14.22,27.836 -18.947,2.543 -8.031,11.001 -13.885,21.045 -12.215,20.954 0.668,36.045 0.813,41.399 0.171,6.361 -1.286,8.72 0.606,15.952 2.836,10.844 7.328,13.213 13.415,21.055 -0.069,24.578 14.355,40.426 35.262,50.32 2.087,8.833 0.141,8.422 5.63,17.478 9.611,15.857 27.426,23.142 45.338,23.674 1.945,7.552 3.359,8.151 10.808,10.186 2.101,19.938 15.479,22.806 33.583,22.958 8.633,0.072 47.66,-2.97 51.746,0.508 -6.773,8.105 -18.927,9.251 -8.409,24.939 -28.744,-3.326 -65.945,-17.53 -90.654,-32.683 -13.955,-8.557 -23.398,-16.13 -36.273,-25.727 -14.627,-10.904 -18.875,-17.487 -30.206,-30.794 -19.972,-23.456 -33.938,-49.743 -44.406,-78.594 -5.471,-15.081 -9.788,-32.925 -12.23,-48.77 -1.435,-9.308 -2.287,-19.064 -2.568,-28.989l0 -14.822c0.639,-22.931 4.227,-46.036 10.615,-66.006 4.321,-13.511 10.432,-31.296 17.553,-43.447 13.102,-22.357 31.835,-53.585 51.81,-70.19 52.985,-44.044 104.483,-68.644 174.575,-68.978zm-174.01 171.82c4.131,-10.989 23.32,-32.064 36.308,-29.908 6.895,1.145 16.675,6.858 22.189,10.976 4.613,3.444 13.291,12.804 17.108,14.516 2.273,2.214 1.149,-2.823 2.018,3.023 -9.064,6.366 -29.898,3.713 -39.779,0.756 -7.9,-2.364 -9.32,-0.009 -16.837,1.966 -6.488,1.704 -12.968,2.221 -20.032,1.589 -1.314,-1.219 -1.042,1.054 -0.975,-2.918z"/>
   <path class="fil1" d="M257.188 481.261c4.606,4.696 3.271,19.043 -1.217,22.804 -3.504,-4.046 -3.938,-12.515 -2.995,-17.785 0.903,-5.05 0.277,-3.886 4.212,-5.019zm6.932 -0.021c6.195,0.039 10.855,5.365 16.198,8.441 4.781,2.752 12.734,6.498 12.261,12.814 -11.961,3.025 -25.625,-10.572 -28.459,-21.255zm-44.542 21.041c-0.849,-6.224 6.886,-9.513 11.353,-12.379 5.321,-3.414 10.543,-8.147 16.842,-8.636 -1.499,10.189 -17.521,25.008 -28.195,21.015zm148.801 -60.717c-1.252,-4.151 -1.739,-4.99 -1.301,-9.52 8.036,-9.495 44.222,-14.332 56.641,-12.824 -0.631,7.235 -25.19,32.309 -55.34,22.344zm-281.32 -22.499c15.646,-0.657 43.557,3.195 56.539,12.261 0.833,4.209 0.534,6.369 -0.842,10.401 -12.712,2.782 -22.382,3.257 -34.438,-2.096 -5.599,-2.485 -21.257,-14.021 -21.259,-20.566zm109.837 -6.065c4.605,-3.982 26.876,2.028 33.03,4.01 11.411,3.674 16.525,7.161 26.044,13.366 4.898,-1.721 12.498,-8.079 26.511,-12.834 6.559,-2.226 28.246,-8.613 33.283,-4.542 -2.856,2.049 -31.399,7.375 -45.024,12.774 -20.417,8.09 -7.078,9.28 -27.052,0.636 -8.645,-3.74 -21.326,-7.711 -30.573,-9.536 -4.948,-0.977 -12.698,-1.136 -16.219,-3.874zm110.944 -6.114c2.616,-1.598 1.438,-2.277 4.409,1.045 -5.158,3.969 -3.148,0.46 -4.409,-1.045zm-107.06 1.114c2.855,-3.361 3.505,-3.408 4.88,0.788 -0.899,0.238 -0.19,0.982 -2.671,0.432 -2.412,-0.534 -0.715,-0.023 -2.209,-1.22zm-49.776 -12.736c40.797,-2.842 -16.986,45.109 104.996,45.429 18.63,0.048 50.183,-1.39 66.735,-8.993 10.984,-5.045 14.072,-9.166 17.828,-20.299 3.629,-10.759 6.873,-18.381 20.748,-15.705 -2.816,7.269 -5.947,8.094 -5.254,18.303 0.441,6.498 2.504,15.04 3.541,21.769 7.405,48.028 19.655,40.425 -102.598,39.111 -17.833,-0.192 -88.534,3.095 -99.437,-0.287 -16.37,-5.077 -8.995,-16.333 -5.939,-35.876 7.441,-47.598 1.521,-26.798 -0.62,-43.452zm86.865 -1.264c5.284,3.217 11.689,3.134 13.415,10.348 -22.145,-11.47 -8.11,-3.019 -21.96,-5.605 -9.115,-1.703 -6.59,-1.06 -8.683,0.257 2.254,2.252 14.893,5.183 19.794,7.655 10.329,5.209 11.203,3.809 11.561,15.526 -5.175,-0.815 -13.805,-8.113 -30.929,-11.394 -4.172,-0.799 -9.188,-0.515 -12.964,-1.787 0.383,-2.736 11.597,-20.704 13.897,-23.374 8.255,-0.728 28.969,1.987 29.979,12.303 -2.204,-0.942 -3.913,-2.067 -6.769,-3.173 -3.953,-1.532 -4.321,-2.696 -7.341,-0.756zm22.444 4.711c-0.118,-9.62 23.042,-13.584 30.739,-13.656l14.408 23.839c-36.827,6.239 -36.166,12.03 -44.624,13.656l-0.064 -9.506c11.039,-10.614 23.837,-7.719 32.315,-13.106 -1.36,-1.177 2.595,-1.652 -3.998,-1.212 -5.33,0.355 0.663,1.473 -14.148,1.118 -5.719,-0.138 -9.661,3.903 -13.888,6.162 0.506,-11.409 19.054,-7.479 25.125,-13.006 -2.154,-1.481 2.37,-1.1 -3.003,-1.018 -0.753,0.011 -3.133,0.767 -4.232,0.838 -5.791,0.378 -2.305,-2.041 -7.433,-0.409 -3.561,1.134 -8.053,5.098 -11.197,6.3zm-130.284 -12.569c6.937,2.334 21.521,24.972 15.971,34.144 -7.937,-2.332 -16.828,-25.955 -15.971,-34.144zm233.971 33.79c-2.091,-7.034 0.281,-14.174 4.045,-19.817 2.767,-4.149 8.169,-13.461 12.767,-13.944 0.079,8.021 -8.79,32.381 -16.812,33.761zm38.167 -16.266c1.904,-6.069 17.676,-18.418 23.446,-22.055 8.157,-5.141 24.517,-11.573 34.249,-11.405 -0.94,8.618 -11.872,21.864 -18.857,26.787 -11.025,7.772 -25.527,7.829 -38.838,6.673zm-18.059 -27.667c-7.398,2.218 -10.939,7.055 -16.069,12.017 -10.446,0.205 -18.821,-2.093 -26.732,6.284 -16.011,16.955 6.233,31.452 -55.261,37.187 -3.811,0.355 -4.254,1.533 -7.156,-0.407 9.934,-5.594 33.969,-9.027 47.021,-13.958 -1.32,-4.572 -14.395,-26.932 -17.975,-29.749l-7.138 -0.071 -5.633 -8.422c-19.051,-3.076 -35.229,8.96 -39.261,10.168 -12.069,-7.678 -23.213,-11.892 -38.173,-10.391l-5.346 8.648 -7.391 -0.221c-4.242,3.62 -17.458,25.594 -17.787,29.916 11.575,6.782 39.76,7.523 47.689,14.916 -12.509,1.609 -45.976,-3.594 -53.134,-14.655 -4.642,-7.174 -4.804,-16.614 -11.046,-22.97 -8.13,-8.279 -17.07,-6.519 -27.81,-6.114 -2.902,-2.328 -4.77,-4.979 -7.611,-7.476 -10.033,-8.821 -7.933,-0.895 -9.749,-12.666 33.379,-3.985 159.763,-5.163 195.451,-3.1 20.921,1.209 43.818,0.407 64.41,2.724l-1.299 8.34zm-334.234 -6.023c12.973,-0.013 36.945,11.086 46.707,21.424 2.371,2.512 9.45,9.644 10.193,12.226 -27.121,4.1 -49.216,-8.298 -56.9,-33.65zm342.641 31.55c-1.699,-10.313 0.03,-27.777 3.554,-37.514 2.596,-7.173 10.263,-21.925 16.822,-24.733 5.756,6.816 2.235,30.646 -0.719,39.052 -2.161,6.147 -13.213,22.705 -19.657,23.195zm-295.542 -61.983c6.894,1.505 14.647,17.532 16.856,24.523 3.73,11.805 4.629,25.433 4.065,37.961 -11.71,-2.595 -22.879,-24.055 -23.2,-42.026 -0.056,-3.109 -0.142,-15.428 0.993,-18.425 0.587,-1.55 0.724,-1.252 1.286,-2.033zm227.669 -2.548c5.479,-1.25 29.131,-1.301 34.26,-0.061 1.684,4.717 1.604,17.203 -0.203,21.876 -5.266,1.11 -29.983,0.899 -33.957,-1.529l-0.1 -20.286zm-168.885 0.321l32.72 -0.153 0.517 20.535 -33.147 0.666 -0.09 -21.048zm108.709 -16.747l6.013 -0.476 0.108 36.348 -5.94 0.183 -0.181 -36.055zm-21.352 -0.145l5.863 -0.458c0.785,5.451 0.939,32.089 -0.329,36.549l-5.123 0.082 -0.411 -36.173zm-10.511 0.23l6.004 -0.708 0.104 36.554 -5.96 -0.009 -0.148 -35.837zm21.438 -0.506l5.699 -0.159c0.58,6.73 1.301,31.828 -0.675,36.491l-4.204 0.152c-2.348,-4.845 -1.651,-29.869 -0.82,-36.484zm-219.004 8.015c3.958,0.712 15.852,9.162 19.566,12.219 5.095,4.194 14.883,11.157 15.663,17.967 -11.209,1.631 -17.359,-0.608 -25.241,-7.344 -6.916,-5.909 -10.581,-13.631 -9.988,-22.842zm403.753 30.091c0.785,-6.526 10.615,-13.89 15.714,-17.75 3.701,-2.802 16.483,-11.593 20.316,-12.308 0.294,19.801 -16.576,32.71 -36.03,30.058zm-113.571 -33.927c5.188,-1.498 28.445,-1.558 33.297,0.001l-0.065 6.745c-4.177,1.258 -28.53,1.23 -32.648,0.111l-0.584 -6.857zm-169.882 0.065c4.977,-1.531 28.192,-1.366 33.403,-0.25l0.086 7.323c-6.198,0.595 -28.214,1.284 -32.814,-0.502l-0.675 -6.571zm273.195 -31.165c0.955,-3.468 0.632,-3.081 3.488,-5.521 2.87,2.582 3.898,6.576 4.625,10.289 6.81,21.222 8.552,23.933 1.689,46.001l-1.014 4.144c-3.289,-1.453 -2.552,-0.928 -3.709,-4.355 -3.145,-3.775 -7.02,-17.518 -8.206,-23.04 -1.849,-8.601 -1.26,-20.321 3.127,-27.518zm-354.532 53.062c-13.334,-11.997 -3.846,-47.055 3.073,-58.826 6.182,1.728 9.097,20.957 8.12,30.572 -0.569,5.609 -6.306,25.452 -11.193,28.254zm251.607 -26.093c-0.612,-10.999 -1.169,-77.837 0.749,-84.834l32.351 0.332 0.008 84.425 -33.108 0.077zm-169.581 -84.135c3.864,-1.725 26.97,-0.982 32.616,-0.612 2.577,9.575 0.609,70.035 0.57,84.697 -5.56,0.555 -29.654,1.069 -33.737,-0.549 -0.449,-9.501 -0.926,-79.228 0.551,-83.536zm232.006 81.845l-5.653 -0.06 -0.209 -16.384 10.674 -0.319c1.951,8.762 -3.079,6.447 -4.812,16.763zm-268.746 -10.116l-0.064 -6.305 11.219 -0.282 0.278 16.44 -7.368 0.38c-0.519,-6.495 -0.045,-6.038 -4.065,-10.233zm-87.306 -17.085c3.099,1.639 14.01,15.784 16.883,19.374 4.019,5.021 12.431,17.054 13.147,23.682 -12.908,-0.921 -37.007,-18.015 -31.926,-39.648 0.23,-0.975 0.154,-0.809 0.498,-1.572 0.73,-1.619 0.699,-1.025 1.398,-1.836zm287.015 17.385l-1.395 2.247 1.125 1.601 -0.375 4.805 -0.229 2.901c3.608,1.448 1.164,-1.015 1.955,3.248l-0.76 35.444c-4.172,0.939 -6.184,1.221 -10.196,-0.22 -1.83,-5.423 -0.946,-27.601 -0.98,-34.617l-16.139 -0.137c-1.572,9.312 -0.003,24.691 -0.563,29.725 -0.58,5.222 0.563,2.039 -1.829,4.037l-3.43 -0.394c-0.785,-4.498 -0.908,-33.201 0.317,-36.535l2.236 -3.307 -6.693 0.01 -0.93 3.237 0 36.498 -5.551 0.039 -0.389 -36.359 -0.275 -2.46c-9.813,-1.289 -23.568,-0.172 -32.894,-0.258 -4.937,-0.046 -8.497,1.605 -10.639,-1.984l-0.071 -2.658 -2.075 3.1 -2.538 0.751 1.096 3.412 0.123 0.002c3.288,1.171 0.936,-1.378 1.582,8.78 0.209,3.284 0.099,6.648 0.09,10.002 -0.019,6.665 0.696,14.047 -1.486,20.085l-3.795 0.457c-4.67,-7.607 -2.264,-25.889 -2.087,-35.347l-15.673 -0.198c-0.088,4.154 0.565,5.369 0.79,8.406l-0.197 26.853 -11.405 0.379 -1.745 -32.638c0.091,-4.94 1.432,-5.786 2.306,-10.141l-0.2 -5.238 -1.071 -3.722c2.063,-5.658 -0.078,-45.766 0.723,-56.605l123.159 0.361 0.108 56.438zm129.017 25.677c0.043,-8.014 8.258,-18.722 13.28,-24.507 3.367,-3.879 14.438,-18.809 17.357,-19.891 8.107,24.226 -15.181,42.132 -30.637,44.398zm-64.374 -46.398c1.669,-5.169 7.862,-4.536 8.883,-0.485 2.608,2.54 2.144,7.775 0.961,11.556 -2.509,0.113 -9.635,0.962 -10.937,-0.955 -0.968,-1.426 -1.461,-9.001 1.093,-10.116zm-264.47 10.571c-0.62,-5.253 -1.667,-14.522 5.795,-14.161 7.271,0.352 6.201,8.953 5.769,14.37l-11.564 -0.209zm247.174 -24.693l62.42 0.248 0.292 5.581c-14.368,20.417 -10.931,24.242 -10.222,48.064l-7.131 2.279c-0.136,-8.488 1.822,-5.819 -3.672,-10.295 1.105,-7.723 -0.712,-6.575 -3.961,-12.26 -4.596,-8.04 1.265,-2.958 -6.877,-7.86 -0.229,-10.338 0.959,-20.736 -13.171,-17.776 -6.266,5.332 -4.837,8.526 -4.845,16.772 -0.008,7.207 -0.126,14.523 0.191,22.02l8.158 0.547c-0.53,3.168 -2.213,3.291 -2.653,6.487 -0.658,4.775 0.827,3.189 1.651,6.684l-5.216 4.275c-0.154,4.759 0.103,3.123 1.727,6.794 -5.944,3.889 -1.923,2.43 -4.842,7.935l-12.14 -1.062 0.291 -78.433zm-284.99 0.262l66.364 -0.261 0.337 78.544 -13.282 0.936c-2.9,-5.207 0.948,-4.27 -4.791,-7.685 1.678,-6.017 2.896,-8.184 -3.842,-11.099 0.503,-3.451 2.054,-3.447 1.644,-6.796 -0.426,-3.484 -2.424,-2.16 -2.51,-6.59l8.391 -0.516c0.268,-6.871 1.655,-31.576 -1.703,-35.94 -3.208,-4.171 -10.213,-4.661 -13.668,-0.819 -3.476,3.866 -2.496,11.475 -2.732,16.399l-4.777 0.915c-3.126,5.664 -7.55,12.365 -6.501,18.55 -5.199,4.04 -4.425,4.702 -2.913,12.327l-9.598 -4.495c-0.494,-4.646 1.135,-9.858 1.119,-14.991 -0.015,-4.647 -0.892,-10.226 -2.176,-14.678 -1.174,-4.071 -2.993,-8.258 -5.185,-11.823 -3.285,-5.343 -5.557,-4.939 -4.177,-11.978zm379.159 15.934c-0.156,-4.66 2.103,-9.221 4.452,-13.468 2.398,-4.338 3.899,-7.338 8.77,-7.804 1.464,8.836 -3.808,20.941 -13.222,21.272zm-12.03 3.14c-5.94,-0.288 -16.116,-15.844 -11.481,-24.042 7.695,1.547 11.349,16.663 11.481,24.042zm-386.481 0.404c-1.776,-4.094 1.099,-11.077 2.634,-15.49 1.64,-4.717 4.342,-9.255 9.24,-9.477 1.435,8.572 -5.24,21.497 -11.874,24.967zm-25.761 -23.802c4.717,-0.458 6.256,3.655 8.691,7.922 2.416,4.233 4.36,7.319 4.42,12.212 -9.076,-0.047 -14.104,-11.677 -13.111,-20.134zm46.756 -18.006c7.192,-1.004 61.041,-1.29 65.32,0.64l-0.109 14.779 -68.023 -0.235 -5.108 -8.409 7.92 -6.775zm283.237 -0.273l47.769 -0.106c18.944,0.29 14.964,-0.8 21.87,6.418l-5.97 9.346 -63.626 -0.16 -0.043 -15.498zm88.768 32.753c-3.19,-2.162 -2.13,-2.21 -3.227,-6.345 -0.539,-2.033 -1.342,-4.057 -2.025,-6.05 -1.934,-5.633 -10.794,-34.474 -3.747,-38.022 4.161,1.899 12.328,15.858 13.425,21.17 1.384,6.696 0.759,25.275 -4.426,29.247zm-399.894 1.386c-1.233,-0.951 -0.795,0.668 -2.282,-2.723l-2.905 -11.351c-2.326,-18.797 8.113,-36.649 15.71,-37.599 3.002,13.083 -5.379,39.871 -10.523,51.673zm147.119 -58.839c4.902,-4.151 51.834,-34.944 55.634,-34.813 4.61,0.159 54.889,34.891 54.891,34.893l0.536 7.538 5.407 1.528 -0.236 10.351 -122.522 -0.121 0.076 -10.792 5.531 -1.172 0.683 -7.412zm162.724 0.794c-3.746,2.097 -41.717,2.08 -44.918,0 2.063,-3.702 18.324,-2.379 22.969,-2.383 5.939,-0.005 17.806,-0.989 21.949,2.383zm-193.949 0.93c-5.1,-0.023 -18.193,1.51 -21.625,-0.93 1.412,-1.018 -1.421,-1.221 4.527,-1.609 2.003,-0.131 4.084,-0.22 6.098,-0.328 8.091,-0.434 28.958,-2.009 34.329,1.937 -5.01,3.004 -16.785,0.96 -23.329,0.93zm152.633 -10.748c-0.13,-6.103 13.385,-37.304 15.607,-47.068l2.702 -6.415c3.62,2.304 4.581,9.803 5.983,14.199 3.114,9.767 14.384,36.391 14.669,42.545 -6.682,0.43 -13.745,-0.366 -20.594,-0.276 -5.948,0.078 -15.436,2.635 -20.262,-0.099 0.979,-4.401 0.322,-1.714 1.895,-2.886zm-169.757 -3.014l14.807 -41.594c0.768,-4.509 1.378,-5.487 3.54,-9.343 2.471,3.687 19.983,51.362 19.498,57.071l-39.86 0.591c-0.344,-3.875 -0.631,-3.894 2.015,-6.725zm74.003 -37.168c1.662,-3.129 2.455,-2.023 7.121,-2.427 17.039,-1.476 21.502,-1.793 39.058,-0.626 6.191,0.411 11.238,0.044 12.867,3.053 -4.541,2.753 -23.066,-0.465 -29.926,-0.252 -6.67,0.207 -24.379,2.758 -29.12,0.252zm20.944 -66.084c0.619,-4.939 5.387,-17.975 8.177,-21.723 5.105,3.382 11.463,31.848 15.195,38.646 3.73,6.794 11.572,31.967 14.055,40.549 -7.078,0.378 -14.173,-0.411 -21.25,-0.73 -7.296,-0.329 -13.311,1.021 -20.143,0.649l-16.07 0.023c0.683,-6.836 7.205,-22.41 9.868,-29.635 3.402,-9.23 6.859,-18.576 10.168,-27.779zm12.744 -72.542c-2.714,-18.041 -1.956,-19.078 21.482,-17.555 6.016,0.391 24.602,7.558 26.646,13.181 -13.611,9.757 -32.421,8.451 -48.128,4.374zm-85.826 86.621l-0.258 -4.663c-2.625,-2.387 -1.892,-1.703 -5.275,-0.982 -2.497,5.11 2.202,22.381 -2.782,24.485 0.256,12.639 1.283,7.618 -3.09,19.569 -2.04,5.575 -3.864,11.299 -6.038,16.882 -2.655,6.82 -9.619,28.715 -13.282,32.547 -11.5,-11.264 -35.435,-29.168 -52.871,-24.571 -32.816,8.651 -40.362,23.528 -51.374,28.317 9.137,-1.723 27.709,-20.598 52.013,-24.834 12.998,-2.265 18.954,0.539 29.495,7.968 5.468,3.855 17.795,12.107 21.664,16.31 -0.746,3.827 -2.219,4.567 -2.627,7.98 -0.355,2.966 -0.108,7.363 0.028,10.401l6.714 0.637 -0.46 8.629 -73.907 -0.298c-0.304,-2.675 1.864,-30.661 -18.041,-11.722 -8.699,8.276 -11.357,16.289 -14.22,27.836 -18.947,2.543 -8.031,11.001 -13.885,21.045 -12.215,20.954 0.668,36.045 0.813,41.399 0.171,6.361 -1.286,8.72 0.606,15.952 2.836,10.844 7.328,13.213 13.415,21.055 -0.069,24.578 14.355,40.426 35.262,50.32 2.087,8.833 0.141,8.422 5.63,17.478 9.611,15.857 27.426,23.142 45.338,23.674 1.945,7.552 3.359,8.151 10.808,10.186 2.101,19.938 15.479,22.806 33.583,22.958 8.633,0.072 47.66,-2.97 51.746,0.508 -6.773,8.105 -18.927,9.251 -8.409,24.939 4.328,1.245 4.901,1.003 9.663,0.996 3.979,-0.82 7.485,-1.908 10.914,-4.101 3.148,-2.015 6.267,-5.677 9.086,-6.688l5.848 12.793 8.896 0 5.401 -12.091c7.284,2.939 8.81,8.471 19.855,10.057 4.833,0.063 5.365,0.24 9.738,-0.966 12.184,-17.486 -6.777,-17.72 -7.708,-26 20.143,-5.876 83.45,15.433 83.782,-22.019 6.825,-3.378 8.438,-2.185 10.647,-10.423 19.285,-2.019 32.261,-5.987 45.062,-24.053 5.14,-7.254 4.634,-9.451 5.618,-17.415 13.77,-7.804 25.728,-16.343 31.956,-33.006 1.235,-3.305 1.812,-5.128 2.343,-8.745 0.775,-5.287 -0.458,-4.052 -0.426,-8.337 16.61,-14.998 13.726,-24.37 14.092,-37.223 0.11,-3.891 13.226,-19.911 0.993,-40.874 -3.086,-5.287 -0.263,-9.259 -2.621,-15.406 -2.403,-6.265 -5.534,-5.033 -10.937,-5.976 -3.133,-9.37 -3.149,-13.538 -9.282,-21.782 -5.923,-7.96 -18.074,-19.872 -22.121,-4.736l-0.655 10.712 -70.094 -0.421 0.123 -8.798c3.942,-0.486 2.788,0.318 6.219,-1.36 0.07,-8.166 0.156,-8.643 -1.935,-16.227 4.971,-4.856 16.423,-12.704 22.506,-16.639 10.205,-6.601 15.377,-10.927 27.902,-8.649 14.594,2.654 39.251,15.715 51.111,25.272l0.212 -2.202c-7.786,-1.991 -25.354,-21.923 -51.005,-27.057 -19.915,-3.986 -45.373,22.993 -52.955,24.992 -2.328,-9.821 -8.612,-24.871 -12.503,-34.648 -14.575,-36.627 -6.834,-23.263 -9.263,-34.607 -3.933,-2.542 -0.474,-18.778 -2.144,-24.4l-5.405 0.475 -0.036 21.552c-0.845,4.315 0.004,1.48 -2.209,3.177 1.937,8.604 0.572,9.394 -2.387,17.645l-11.978 32.817c-2.22,5.817 -2.973,10.974 -4.999,16.854 -4.976,-1.245 -27.583,-15.799 -31.681,-19.447l0.012 -5.055c3.638,-2.691 4.651,-0.696 6.966,-5.051 2.32,-4.363 1.185,-3.565 5.139,-6.916 -0.861,-9.15 -27.26,-73.747 -33.479,-91.685 -1.981,-5.716 0.799,-5.003 -0.319,-10.345 -0.724,-3.459 -2.486,-2.626 -2.838,-6.996 -0.276,-3.435 -0.28,-16.227 0.26,-19.303 11.002,-0.955 25.126,5.005 35.983,1.11 5.597,-2.007 22.902,-10.738 26.458,-14.805 -2.053,-4.19 -20.337,-12.634 -25.772,-15.397 -13.366,-6.793 -23.821,-2.589 -36.418,-4.45l-0.942 -9.573 -7.407 0.032c-2.07,9.8 -0.646,40.467 -0.647,52.388 -0.002,24.315 -3.615,10.293 -2.21,22.459 0.625,5.413 -17.647,51.26 -20.295,57.98 -3.246,8.234 -12.764,31.213 -13.601,38.635 3.595,3.828 2.389,3.495 4.856,7.221 2.34,3.535 3.278,2.239 6.6,4.664l-0.547 5.948c-5.575,3.822 -24.989,16.865 -30.241,18.386l-7.031 -20.838c-2.498,-6.822 -13.82,-35.666 -13.466,-40.427 0.275,-3.701 -1.821,-11.84 -1.28,-25.033z"/>
   <path class="fil2" d="M266.948 465.154c-2.171,-9.071 1.946,-19.467 12.597,-13.712 1.499,4.518 0.42,9.335 -1.727,13.349 -4.062,1.482 -6.754,2.093 -10.87,0.363zm18.39 0.589c-3.771,-4.647 -2.227,-14.312 3.928,-15.528 10.494,-2.075 9.095,7.682 5.752,13.86 -3.557,2.403 -5.127,2.349 -9.68,1.668zm-52.723 -0.261c-7.805,-12.466 10.969,-22.528 12.241,-10.338 -4.199,-2.145 0.131,-2.081 -4.443,-3.608 -6.969,-2.328 -9.034,9.501 -6.952,12.027 4.931,2.955 6.45,-1.017 10.261,-2.555 -1.961,5.638 -5.624,5.856 -11.107,4.474zm16.226 0.147c-1.296,-2.364 0.906,-17.062 3.166,-20.265 1.187,2.257 0.355,2.376 0.372,5.526 4.912,-1.786 6.502,-1.881 10.406,1.665 0.147,3.374 -0.041,4.233 -0.597,7.467 -1.319,7.666 -1.171,4.825 -2.16,5.788 -0.622,-5.266 1.783,-8.208 0.288,-13.134 -9.988,-7.057 -8.862,8.346 -11.475,12.953zm-24.196 -7.472c-3.63,-3.2 -15.776,-2.145 -11.937,-9.351 1.11,-2.082 4.735,-3.438 7.305,-3.683 9.254,-0.883 8.133,2.849 8.14,2.863 -5.154,-0.427 -8.82,-3.189 -13.896,1.017l0.101 3.685c5.47,2.162 8.089,0.304 11.996,4.87 1.725,10.317 -14.047,11.502 -15.239,4.526 4.172,1.388 14.232,6.306 13.53,-3.927zm-73.641 -62.893c2.141,16.654 8.061,-4.146 0.62,43.452 -3.056,19.543 -10.431,30.799 5.939,35.876 10.903,3.382 81.604,0.095 99.437,0.287 122.253,1.314 110.003,8.917 102.598,-39.111 -1.037,-6.729 -3.1,-15.271 -3.541,-21.769 -0.693,-10.209 2.438,-11.034 5.254,-18.303 -13.875,-2.676 -17.119,4.946 -20.748,15.705 -3.756,11.133 -6.844,15.254 -17.828,20.299 -16.552,7.603 -48.105,9.041 -66.735,8.993 -121.982,-0.32 -64.199,-48.271 -104.996,-45.429z"/>
   <path class="fil2" d="M385.407 367.659c-20.592,-2.317 -43.489,-1.515 -64.41,-2.724 -35.688,-2.063 -162.072,-0.885 -195.451,3.1 1.816,11.771 -0.284,3.845 9.749,12.666 2.841,2.497 4.709,5.148 7.611,7.476 10.74,-0.405 19.68,-2.165 27.81,6.114 6.242,6.356 6.404,15.796 11.046,22.97 7.158,11.061 40.625,16.264 53.134,14.655 -7.929,-7.393 -36.114,-8.134 -47.689,-14.916 0.329,-4.322 13.545,-26.296 17.787,-29.916l7.391 0.221 5.346 -8.648c14.96,-1.501 26.104,2.713 38.173,10.391 4.032,-1.208 20.21,-13.244 39.261,-10.168l5.633 8.422 7.138 0.071c3.58,2.817 16.655,25.177 17.975,29.749 -13.052,4.931 -37.087,8.364 -47.021,13.958 2.902,1.94 3.345,0.762 7.156,0.407 61.494,-5.735 39.25,-20.232 55.261,-37.187 7.911,-8.377 16.286,-6.079 26.732,-6.284 5.13,-4.962 8.671,-9.799 16.069,-12.017l1.299 -8.34z"/>
   <path class="fil3" d="M275.983 224.006c-2.327,3.311 -3.447,1.816 -4.99,4.926 -1.787,3.604 0.007,2.881 -0.189,6.844 -10.628,1.742 -5.093,0.227 -13.809,4.398 -6.38,-3.176 -0.85,-5.891 -12.01,-3.49l-0.144 -8.671c-3.504,-2.895 -3.019,0.012 -4.745,-4.028 2.138,-3.808 3.175,0.443 5.122,-5.775 1.966,-6.282 -1.338,-1.22 -0.708,-6.699 4.207,-0.95 3.816,1.476 7.93,-1.05 2.673,-1.641 1.929,-2.625 5.443,-4.546 8.355,9.689 7.386,2.799 13.472,5.807 0.765,3.828 -1.717,3.385 0.01,7.803 1.417,3.628 1.869,1.384 4.618,4.481zm-73.758 2.2l-0.683 7.412 -5.531 1.172 -0.076 10.792 122.522 0.121 0.236 -10.351 -5.407 -1.528 -0.536 -7.538c-0.002,-0.002 -50.281,-34.734 -54.891,-34.893 -3.8,-0.131 -50.732,30.662 -55.634,34.813z"/>
   <path class="fil3" d="M290.324 301.682c-0.915,-7.384 -0.282,-17.956 -0.257,-25.682 0.025,-7.732 -1.732,-17.988 8.933,-17.589 9.806,0.367 7.61,11.322 7.643,18.589 0.033,7.266 0.517,17.474 -0.268,24.879l-16.051 -0.197zm-65.701 0.037l-15.433 0.275c-1.106,-6.75 -0.454,-17.9 -0.449,-24.994 0.005,-7.109 -1.931,-18.525 8.257,-18.571 9.896,-0.045 8.139,10.444 8.197,17.571 0.057,6.99 0.639,19.307 -0.572,25.719zm4.784 4.999c3.104,-0.129 6.392,-3.757 9.728,-5.128 1.485,-3.173 -1.594,-0.18 3.002,-3.406l-0.768 -3.989c-1.93,-4.191 -1.094,-20.625 -0.884,-26.238 0.365,-9.736 6.92,-12.293 14.461,-6.424l4.211 1.235c4.637,-6.288 9.978,-5.708 14.831,-0.227 3.117,2.255 1.471,11.289 1.644,15.459 0.228,5.498 0.858,11.663 -0.698,16.899 -4.641,2.374 -4.638,0.406 -8.465,3.432 3.014,1.402 6.033,1.992 9.379,3.82 2.916,1.594 5.138,4.043 7.786,4.498l33.706 -0.111c-0.571,-10.898 2.101,-44.379 -0.618,-52.341 -3.427,-1.686 -109.469,-1.972 -119.238,-0.685l0.073 52.513 31.85 0.693z"/>
   <path class="fil4" d="M129.98 345.043c5.739,3.415 1.891,2.478 4.791,7.685l13.282 -0.936 -0.337 -78.544 -66.364 0.261c-1.38,7.039 0.892,6.635 4.177,11.978 2.192,3.565 4.011,7.752 5.185,11.823 1.284,4.452 2.161,10.031 2.176,14.678 0.016,5.133 -1.613,10.345 -1.119,14.991l9.598 4.495c-1.512,-7.625 -2.286,-8.287 2.913,-12.327 -1.049,-6.185 3.375,-12.886 6.501,-18.55l4.777 -0.915c0.236,-4.924 -0.744,-12.533 2.732,-16.399 3.455,-3.842 10.46,-3.352 13.668,0.819 3.358,4.364 1.971,29.069 1.703,35.94l-8.391 0.516c0.086,4.43 2.084,3.106 2.51,6.59 0.41,3.349 -1.141,3.345 -1.644,6.796 6.738,2.915 5.52,5.082 3.842,11.099z"/>
   <path class="fil2" d="M366.051 351.68l12.14 1.062c2.919,-5.505 -1.102,-4.046 4.842,-7.935 -1.624,-3.671 -1.881,-2.035 -1.727,-6.794l5.216 -4.275c-0.824,-3.495 -2.309,-1.909 -1.651,-6.684 0.44,-3.196 2.123,-3.319 2.653,-6.487l-8.158 -0.547c-0.317,-7.497 -0.199,-14.813 -0.191,-22.02 0.008,-8.246 -1.421,-11.44 4.845,-16.772 14.13,-2.96 12.942,7.438 13.171,17.776 8.142,4.902 2.281,-0.18 6.877,7.86 3.249,5.685 5.066,4.537 3.961,12.26 5.494,4.476 3.536,1.807 3.672,10.295l7.131 -2.279c-0.709,-23.822 -4.146,-27.647 10.222,-48.064l-0.292 -5.581 -62.42 -0.248 -0.291 78.433z"/>
   <path class="fil5" d="M347.544 318.608c-4.014,0.974 -7.114,1.085 -11.092,-0.034 -0.771,-5.764 -2.535,-22.819 5.551,-22.985 8.654,-0.177 6.506,17.311 5.541,23.019zm-11.082 -34.97c-0.876,-6.014 -2.946,-23.346 5.601,-23.482 8.65,-0.139 6.514,17.725 5.596,23.571 -4.183,1.087 -7.029,1.131 -11.197,-0.089zm-0.462 -33.607c-0.27,-12.047 10.388,-10.489 12.028,-4.856 2.226,7.645 -6.114,12.927 -12.028,4.856zm-10.393 70.165l33.108 -0.077 -0.008 -84.425 -32.351 -0.332c-1.918,6.997 -1.361,73.835 -0.749,84.834z"/>
   <path class="fil6" d="M437.136 233.005c-2.819,2.834 -2.337,3.599 -2.046,8.998l-67.086 0.087 -0.09 -6.07 6.016 -0.45 -0.019 -13.574c22.183,-0.013 35.402,-2.969 51.088,-3l39.219 1.413c7.088,1.374 6.814,0.863 10.948,-2.982 -0.758,-4.207 0.752,-1.862 -2.641,-2.734l-0.212 2.202c-11.86,-9.557 -36.517,-22.618 -51.111,-25.272 -12.525,-2.278 -17.697,2.048 -27.902,8.649 -6.083,3.935 -17.535,11.783 -22.506,16.639 2.091,7.584 2.005,8.061 1.935,16.227 -3.431,1.678 -2.277,0.874 -6.219,1.36l-0.123 8.798 70.094 0.421 0.655 -10.712z"/>
   <path class="fil6" d="M40.771 216.579l-0.133 3.678 65.417 -1.29c5.945,-0.003 6.004,1.337 10.856,1.914 6.776,0.806 16.644,0.634 22.293,2.295 -0.747,11.826 -1.213,10.081 2.14,11.228 -0.136,-3.038 -0.383,-7.435 -0.028,-10.401 0.408,-3.413 1.881,-4.153 2.627,-7.98 -3.869,-4.203 -16.196,-12.455 -21.664,-16.31 -10.541,-7.429 -16.497,-10.233 -29.495,-7.968 -24.304,4.236 -42.876,23.111 -52.013,24.834z"/>
   <path class="fil3" d="M166.563 283.536c-0.597,-6.357 -3.196,-22.841 5.538,-23.367 9.063,-0.545 7.114,17.809 5.746,24.171l-11.284 -0.804zm8.801 -30.092c-9.363,1.831 -11.52,-5.305 -5.388,-12.235 9.635,-0.523 11.632,7.569 5.388,12.235zm-8.303 44.897l1.944 -2.463c0.002,-0.003 1.28,-4.637 7.754,-0.796 4.373,2.594 2.998,17.316 3.152,23.996l7.619 0.144c0.563,-11.396 1.372,-74.33 -0.44,-81.28 -3.764,-1.17 -25.972,-1.05 -29.92,-0.027l-0.174 80.627c4.151,1.651 3.848,1.445 8.063,0.508 0.407,-5.295 -2.088,-17.308 2.002,-20.709z"/>
   <path class="fil7" d="M248.823 110.916c5.432,-3.516 0.945,-2.876 5.113,-9.605 1.021,1.448 0.775,0.307 1.42,2.645l0.195 6.046c-0.059,2.691 -0.263,5.33 -0.292,7.998 -0.058,5.271 0.106,10.676 0.075,16 -0.039,6.73 0.421,27.066 -0.984,32.233 -7.899,1.429 -5.725,-0.858 -9.493,2.074 6.832,0.372 12.847,-0.978 20.143,-0.649 7.077,0.319 14.172,1.108 21.25,0.73 -2.483,-8.582 -10.325,-33.755 -14.055,-40.549 -3.732,-6.798 -10.09,-35.264 -15.195,-38.646 -2.79,3.748 -7.558,16.784 -8.177,21.723z"/>
   <path class="fil8" d="M358.288 168.005c-3.002,1.74 -1.687,-1.202 -2.454,3.422 4.264,2.6 -0.801,0.873 5.133,1.648 13.392,1.75 23.092,1.617 35.88,-1.892 12.897,-3.539 14.252,4.61 32.162,3.921 5.257,-0.202 2.572,0.494 6.157,-1.805 -0.409,-6.492 -0.206,-2.961 -2.216,-5.294l0.018 4.101c-2.911,-1.795 -4.898,-6.07 -7.401,-8.666 -9.638,-9.994 -18.091,-20.682 -28.359,-17.285 -13.308,4.402 -27.858,16.427 -38.755,24.73l-0.165 -2.88z"/>
   <path class="fil8" d="M80.543 171.82c-0.067,3.972 -0.339,1.699 0.975,2.918 7.064,0.632 13.544,0.115 20.032,-1.589 7.517,-1.975 8.937,-4.33 16.837,-1.966 9.881,2.957 30.715,5.61 39.779,-0.756 -0.869,-5.846 0.255,-0.809 -2.018,-3.023 -0.65,3.031 2.107,0.51 -1.169,2.95 -8.999,-7.434 -27.22,-21.973 -38.568,-24.578 -15.228,-3.496 -27.16,21.794 -35.868,26.044z"/>
   <path class="fil9" d="M75.075 257.954l5.108 8.409 68.023 0.235 0.109 -14.779c-4.279,-1.93 -58.128,-1.644 -65.32,-0.64l-7.92 6.775z"/>
   <path class="fil9" d="M366.275 266.404l63.626 0.16 5.97 -9.346c-6.906,-7.218 -2.926,-6.128 -21.87,-6.418l-47.769 0.106 0.043 15.498z"/>
   <path class="fil10" d="M248.823 110.916c-3.309,9.203 -6.766,18.549 -10.168,27.779 -2.663,7.225 -9.185,22.799 -9.868,29.635l16.07 -0.023c3.768,-2.932 1.594,-0.645 9.493,-2.074 1.405,-5.167 0.945,-25.503 0.984,-32.233 0.031,-5.324 -0.133,-10.729 -0.075,-16 0.029,-2.668 0.233,-5.307 0.292,-7.998l-0.195 -6.046c-0.645,-2.338 -0.399,-1.197 -1.42,-2.645 -4.168,6.729 0.319,6.089 -5.113,9.605z"/>
   <path class="fil11" d="M402.167 403.666c13.311,1.156 27.813,1.099 38.838,-6.673 6.985,-4.923 17.917,-18.169 18.857,-26.787 -9.732,-0.168 -26.092,6.264 -34.249,11.405 -5.77,3.637 -21.542,15.986 -23.446,22.055z"/>
   <path class="fil12" d="M144.134 119.005c-1.224,1.513 -3.797,-1.898 -1.492,3.968 1.945,4.949 21.404,2.021 24.448,2.023l0.336 18.839c4.984,-2.104 0.285,-19.375 2.782,-24.485 3.383,-0.721 2.65,-1.405 5.275,0.982l0.258 4.663c29.314,-0.175 16.006,-6.281 27.508,-3.165 4.373,1.185 8.247,1.334 11.917,-0.556 -0.667,-6.922 0.049,-1.748 -2.31,-3.813l-0.572 2.55c-4.615,-4.179 -9.038,-11.38 -15.266,-13.278 -6.366,1.37 -6.837,7.697 -14.536,3.786 -4.526,-2.297 -6.972,-7.727 -13.124,-6.222 -2.359,0.576 -20.541,14.086 -23.551,16.603 -2.276,0.162 -0.889,0.834 -1.673,-1.895z"/>
   <path class="fil11" d="M49.874 369.976c7.684,25.352 29.779,37.75 56.9,33.65 -0.743,-2.582 -7.822,-9.714 -10.193,-12.226 -9.762,-10.338 -33.734,-21.437 -46.707,-21.424z"/>
   <path class="fil11" d="M368.379 441.564c30.15,9.965 54.709,-15.109 55.34,-22.344 -12.419,-1.508 -48.605,3.329 -56.641,12.824 -0.438,4.53 0.049,5.369 1.301,9.52z"/>
   <path class="fil11" d="M143.598 431.326c-12.982,-9.066 -40.893,-12.918 -56.539,-12.261 0.002,6.545 15.66,18.081 21.259,20.566 12.056,5.353 21.726,4.878 34.438,2.096 1.376,-4.032 1.675,-6.192 0.842,-10.401z"/>
   <path class="fil11" d="M392.515 401.526c6.444,-0.49 17.496,-17.048 19.657,-23.195 2.954,-8.406 6.475,-32.236 0.719,-39.052 -6.559,2.808 -14.226,17.56 -16.822,24.733 -3.524,9.737 -5.253,27.201 -3.554,37.514z"/>
   <path class="fil11" d="M96.973 339.543c-0.562,0.781 -0.699,0.483 -1.286,2.033 -1.135,2.997 -1.049,15.316 -0.993,18.425 0.321,17.971 11.49,39.431 23.2,42.026 0.564,-12.528 -0.335,-26.156 -4.065,-37.961 -2.209,-6.991 -9.962,-23.018 -16.856,-24.523z"/>
   <path class="fil11" d="M261.567 38.374c15.707,4.077 34.517,5.383 48.128,-4.374 -2.044,-5.623 -20.63,-12.79 -26.646,-13.181 -23.438,-1.523 -24.196,-0.486 -21.482,17.555z"/>
   <path class="fil8" d="M247.618 416.588l-14.302 -6.775c1.953,-0.905 4.683,0.019 7.499,1.238 3.913,1.694 5.163,2.076 6.803,5.537zm-9.749 -22.588c3.02,-1.94 3.388,-0.776 7.341,0.756 2.856,1.106 4.565,2.231 6.769,3.173 -1.01,-10.316 -21.724,-13.031 -29.979,-12.303 -2.3,2.67 -13.514,20.638 -13.897,23.374 3.776,1.272 8.792,0.988 12.964,1.787 17.124,3.281 25.754,10.579 30.929,11.394 -0.358,-11.717 -1.232,-10.317 -11.561,-15.526 -4.901,-2.472 -17.54,-5.403 -19.794,-7.655 2.093,-1.317 -0.432,-1.96 8.683,-0.257 13.85,2.586 -0.185,-5.865 21.96,5.605 -1.726,-7.214 -8.131,-7.131 -13.415,-10.348z"/>
   <path class="fil12" d="M265.199 415.991c1.969,-7.986 13.276,-8.273 19.734,-8.002 -2.02,4.266 -1.181,1.165 -9.409,4.509 -3.495,1.42 -6.714,2.926 -10.325,3.493zm-4.886 -17.28c3.144,-1.202 7.636,-5.166 11.197,-6.3 5.128,-1.632 1.642,0.787 7.433,0.409 1.099,-0.071 3.479,-0.827 4.232,-0.838 5.373,-0.082 0.849,-0.463 3.003,1.018 -6.071,5.527 -24.619,1.597 -25.125,13.006 4.227,-2.259 8.169,-6.3 13.888,-6.162 14.811,0.355 8.818,-0.763 14.148,-1.118 6.593,-0.44 2.638,0.035 3.998,1.212 -8.478,5.387 -21.276,2.492 -32.315,13.106l0.064 9.506c8.458,-1.626 7.797,-7.417 44.624,-13.656l-14.408 -23.839c-7.697,0.072 -30.857,4.036 -30.739,13.656z"/>
   <path class="fil13" d="M239.135 301.59c-3.336,1.371 -6.624,4.999 -9.728,5.128 -2.796,2.494 -4.069,1.67 -8.407,1.619 -2.657,-0.032 -5.339,-0.032 -8,-0.046 -6.08,-0.033 -11.996,0.43 -17.995,-0.395l1.071 3.722 30.856 0 -0.255 5.186 2.538 -0.751 2.075 -3.1c8.871,-6.948 14.486,-10.834 26.719,-10.279 7.164,0.324 24.475,4.556 24.753,13.021l-51.401 -0.084c2.142,3.589 5.702,1.938 10.639,1.984 9.326,0.086 23.081,-1.031 32.894,0.258l0.275 2.46 5.94 -0.178 0.93 -3.237 6.693 -0.01 -2.236 3.307 31.625 -0.551 0.229 -2.901c-5.384,0.978 -26.124,1.119 -30.779,-0.265l-0.466 -3.685c4.076,-2.243 26.236,-1.556 31.62,-0.855l-1.125 -1.601 1.395 -2.247c-6.378,0.338 -12.617,0.25 -18.995,0.158 -4.223,-0.06 -14.251,1.662 -16.366,-1.599 -2.648,-0.455 -4.87,-2.904 -7.786,-4.498 -3.346,-1.828 -6.365,-2.418 -9.379,-3.82 -10.789,1.934 -12.606,-2.263 -27.334,3.259z"/>
   <path class="fil7" d="M339.24 170.114c3.163,1.213 2.141,6.858 2.132,10.886 -0.016,7.156 0.032,33.205 -1.483,37l-15.801 1.723 -0.455 -2.541c-1.573,1.172 -0.916,-1.515 -1.895,2.886 4.826,2.734 14.314,0.177 20.262,0.099 6.849,-0.09 13.912,0.706 20.594,0.276 -0.285,-6.154 -11.555,-32.778 -14.669,-42.545 -1.402,-4.396 -2.363,-11.895 -5.983,-14.199l-2.702 6.415z"/>
   <path class="fil11" d="M74 346.289c4.887,-2.802 10.624,-22.645 11.193,-28.254 0.977,-9.615 -1.938,-28.844 -8.12,-30.572 -6.919,11.771 -16.407,46.829 -3.073,58.826z"/>
   <path class="fil7" d="M168.683 172.574l3.37 -0.733 -1.485 46.169c-4.781,1.462 -12.04,1.745 -17.185,1.208l0.493 -5.05c-2.646,2.831 -2.359,2.85 -2.015,6.725l39.86 -0.591c0.485,-5.709 -17.027,-53.384 -19.498,-57.071 -2.162,3.856 -2.772,4.834 -3.54,9.343z"/>
   <polygon class="fil10" points="155.847,358.364 188.994,357.698 188.477,337.163 155.757,337.316 "/>
   <path class="fil11" d="M433.611 343.785l4.723 0.211c6.863,-22.068 5.121,-24.779 -1.689,-46.001 -5.162,-2.896 -1.579,-0.753 -4.46,-5.815l-3.653 1.047c-4.387,7.197 -4.976,18.917 -3.127,27.518 1.186,5.522 5.061,19.265 8.206,23.04z"/>
   <path class="fil10" d="M326.874 357l30.862 0.841 0.346 -19.637 -31.993 -0.203c-0.185,5.114 -1.067,14.855 0.785,18.999z"/>
   <path class="fil14" d="M448.012 333.767c15.456,-2.266 38.744,-20.172 30.637,-44.398 -2.919,1.082 -13.99,16.012 -17.357,19.891 -5.022,5.785 -13.237,16.493 -13.28,24.507z"/>
   <path class="fil11" d="M31.98 290.705c-0.699,0.811 -0.668,0.217 -1.398,1.836 -0.344,0.763 -0.268,0.597 -0.498,1.572 -5.081,21.633 19.018,38.727 31.926,39.648 -0.716,-6.628 -9.128,-18.661 -13.147,-23.682 -2.873,-3.59 -13.784,-17.735 -16.883,-19.374z"/>
   <path class="fil14" d="M55.106 285.045c5.144,-11.802 13.525,-38.59 10.523,-51.673 -7.597,0.95 -18.036,18.802 -15.71,37.599l2.905 11.351c1.487,3.391 1.049,1.772 2.282,2.723z"/>
   <path class="fil14" d="M455 283.659c5.185,-3.972 5.81,-22.551 4.426,-29.247 -1.097,-5.312 -9.264,-19.271 -13.425,-21.17 -7.047,3.548 1.813,32.389 3.747,38.022 0.683,1.993 1.486,4.017 2.025,6.05 1.097,4.135 0.037,4.183 3.227,6.345z"/>
   <path class="fil10" d="M153.876 214.168l-0.493 5.05c5.145,0.537 12.404,0.254 17.185,-1.208l1.485 -46.169 -3.37 0.733 -14.807 41.594z"/>
   <path class="fil15" d="M231.29 312.953l0.071 2.658 51.401 0.084c-0.278,-8.465 -17.589,-12.697 -24.753,-13.021 -12.233,-0.555 -17.848,3.331 -26.719,10.279z"/>
   <path class="fil10" d="M323.633 217.182l0.455 2.541 15.801 -1.723c1.515,-3.795 1.467,-29.844 1.483,-37 0.009,-4.028 1.031,-9.673 -2.132,-10.886 -2.222,9.764 -15.737,40.965 -15.607,47.068z"/>
   <path class="fil16" d="M167.061 298.341c-4.09,3.401 -1.595,15.414 -2.002,20.709 -4.215,0.937 -3.912,1.143 -8.063,-0.508l0.174 -80.627c3.948,-1.023 26.156,-1.143 29.92,0.027 1.812,6.95 1.003,69.884 0.44,81.28l-7.619 -0.144c-0.154,-6.68 1.221,-21.402 -3.152,-23.996 -6.474,-3.841 -7.752,0.793 -7.754,0.796 6.848,-0.664 9.425,0.729 9.447,8.077 0.014,4.74 0.465,10.149 -0.877,14.874l-10.361 -0.085c-1.555,-6.073 -0.609,-14 -0.153,-20.403zm-11.035 -62.28c-1.477,4.308 -1,74.035 -0.551,83.536 4.083,1.618 28.177,1.104 33.737,0.549 0.039,-14.662 2.007,-75.122 -0.57,-84.697 -5.646,-0.37 -28.752,-1.113 -32.616,0.612z"/>
   <path class="fil11" d="M438.79 358.254c19.454,2.652 36.324,-10.257 36.03,-30.058 -3.833,0.715 -16.615,9.506 -20.316,12.308 -5.099,3.86 -14.929,11.224 -15.714,17.75z"/>
   <path class="fil11" d="M45.025 351.005c7.882,6.736 14.032,8.975 25.241,7.344 -0.78,-6.81 -10.568,-13.773 -15.663,-17.967 -3.714,-3.057 -15.608,-11.507 -19.566,-12.219 -0.593,9.211 3.072,16.933 9.988,22.842z"/>
   <path class="fil16" d="M195.005 307.896c5.999,0.825 11.915,0.362 17.995,0.395 2.661,0.014 5.343,0.014 8,0.046 4.338,0.051 5.611,0.875 8.407,-1.619l-31.85 -0.693 -0.073 -52.513c9.769,-1.287 115.811,-1.001 119.238,0.685 2.719,7.962 0.047,41.443 0.618,52.341l-33.706 0.111c2.115,3.261 12.143,1.539 16.366,1.599 6.378,0.092 12.617,0.18 18.995,-0.158l-0.108 -56.438 -123.159 -0.361c-0.801,10.839 1.34,50.947 -0.723,56.605z"/>
   <path class="fil17" d="M196.896 413c3.521,2.738 11.271,2.897 16.219,3.874 9.247,1.825 21.928,5.796 30.573,9.536 19.974,8.644 6.635,7.454 27.052,-0.636 13.625,-5.399 42.168,-10.725 45.024,-12.774 -5.037,-4.071 -26.724,2.316 -33.283,4.542 -14.013,4.755 -21.613,11.113 -26.511,12.834 -9.519,-6.205 -14.633,-9.692 -26.044,-13.366 -6.154,-1.982 -28.425,-7.992 -33.03,-4.01z"/>
   <path class="fil18" d="M253.754 221.928l-4.45 6.654c-1.675,-1.454 -0.85,-0.079 -1.982,-1.894 -1.925,-3.088 -0.771,-4.812 -0.143,-6.361 2.616,-3.19 1.231,-2.889 3.816,-4.9l3.171 -2.185c2.219,-2.482 4.411,-1.809 7.119,-0.326l4.408 2.565 -1.132 2.817 1.278 0.095 2.886 1.03 -0.165 8.809c-1.33,3.245 -0.725,2.586 -3.512,4.239l-3.349 1.568c-2.262,0.64 -6.545,1.256 -8.149,-1.034l-3.848 -1.706c2.171,-5.12 3.141,-1.215 4.459,-5.214l1.554 -1.643c3.163,3.083 1.366,2.471 4.6,-0.282l-1.142 -3.291c-1.041,-0.93 -1.613,0.964 -2.137,-3.792 -0.376,-3.418 0.311,-1.565 1.008,-2.08l-0.502 6.855 -3.788 0.076zm-9.244 -10.417c-0.63,5.479 2.674,0.417 0.708,6.699 -1.947,6.218 -2.984,1.967 -5.122,5.775 1.726,4.04 1.241,1.133 4.745,4.028l0.144 8.671c11.16,-2.401 5.63,0.314 12.01,3.49 8.716,-4.171 3.181,-2.656 13.809,-4.398 0.196,-3.963 -1.598,-3.24 0.189,-6.844 1.543,-3.11 2.663,-1.615 4.99,-4.926 -2.749,-3.097 -3.201,-0.853 -4.618,-4.481 -1.727,-4.418 0.755,-3.975 -0.01,-7.803 -6.086,-3.008 -5.117,3.882 -13.472,-5.807 -3.514,1.921 -2.77,2.905 -5.443,4.546 -4.114,2.526 -3.723,0.1 -7.93,1.05z"/>
   <path class="fil19" d="M203.036 355.089l-5.125 -0.092 0.045 -32.071 4.802 -0.992 0.278 33.155zm24.86 -34.871l-0.123 -0.002 -31.895 -0.008 -0.311 37.081 9.318 0.165 0.473 -34.761 18.065 -0.302c1.068,6.682 0.005,29.85 0.321,31.707 0.789,4.628 -0.332,1.811 2.256,3.097 3.814,-1.937 2.172,-7.368 2.238,-17.195 0.042,-6.326 0.393,-13.572 -0.342,-19.782z"/>
   <path class="fil13" d="M227.896 320.218c0.735,6.21 0.384,13.456 0.342,19.782 -0.066,9.827 1.576,15.258 -2.238,17.195 -2.588,-1.286 -1.467,1.531 -2.256,-3.097 -0.316,-1.857 0.747,-25.025 -0.321,-31.707l-18.065 0.302 -0.473 34.761 -9.318 -0.165 0.311 -37.081 31.895 0.008 -1.096 -3.412 -30.401 0.052c-0.874,4.355 -2.215,5.201 -2.306,10.141l1.745 32.638 11.405 -0.379 0.197 -26.853c-0.225,-3.037 -0.878,-4.252 -0.79,-8.406l15.673 0.198c-0.177,9.458 -2.583,27.74 2.087,35.347l3.795 -0.457c2.182,-6.038 1.467,-13.42 1.486,-20.085 0.009,-3.354 0.119,-6.718 -0.09,-10.002 -0.646,-10.158 1.706,-7.609 -1.582,-8.78z"/>
   <path class="fil20" d="M293.179 299.083l-0.318 -10.835 10.614 -0.086 0.296 10.36 -10.592 0.561zm-0.028 -24.391l10.736 0.482 -0.347 9.78 -10.742 0.026 0.353 -10.288zm0.135 -2.929c-3.006,-15.853 14.014,-13.35 10.02,-0.026l-10.02 0.026zm-2.962 29.919l16.051 0.197c0.785,-7.405 0.301,-17.613 0.268,-24.879 -0.033,-7.267 2.163,-18.222 -7.643,-18.589 -10.665,-0.399 -8.908,9.857 -8.933,17.589 -0.025,7.726 -0.658,18.298 0.257,25.682z"/>
   <path class="fil19" d="M316.456 321.961l-0.366 33.085 -4.915 -0.216c-0.893,-10.55 1.102,-21.682 -1.053,-32.037l6.334 -0.832zm-26.847 35.163l0.806 -34.879 18.749 -0.015 0.304 35.032 8.963 -0.086 -0.31 -37.532 -31.625 0.551c-1.225,3.334 -1.102,32.037 -0.317,36.535l3.43 0.394z"/>
   <path class="fil20" d="M211.591 288.105l10.875 0.389 -0.028 10.318 -11.005 -0.352 0.158 -10.355zm0.284 -3.068c-0.98,-4.038 -1.172,-6.648 0.374,-10.8l10.185 0.717 -0.084 10.074 -10.475 0.009zm0.258 -13.272c-3.644,-13.47 11.967,-16.102 10.241,0.089l-10.241 -0.089zm12.49 29.954c1.211,-6.412 0.629,-18.729 0.572,-25.719 -0.058,-7.127 1.699,-17.616 -8.197,-17.571 -10.188,0.046 -8.252,11.462 -8.257,18.571 -0.005,7.094 -0.657,18.244 0.449,24.994l15.433 -0.275z"/>
   <path class="fil21" d="M323.296 119.005c-2.049,2.315 -2.923,-2.917 -1.634,4.418 4.399,3.046 9.657,1.488 15.479,-0.073 1.386,6.681 0.38,13.994 -0.136,20.827 2.213,-1.697 1.364,1.138 2.209,-3.177l0.036 -21.552 5.405 -0.475c1.67,5.622 -1.789,21.858 2.144,24.4l0.197 -18.546c5.09,0.1 9.197,1.007 13.712,-1.216 0.079,-6.537 0.364,-0.869 -1.778,-3.606 -1.223,2.473 3.278,5.086 -14.898,-9.216 -4.934,0.682 -7.048,2.406 -11.135,5.117 -7.151,4.745 -8.607,6.646 -9.601,3.099z"/>
   <path class="fil18" d="M80.543 171.82c8.708,-4.25 20.64,-29.54 35.868,-26.044 11.348,2.605 29.569,17.144 38.568,24.578 3.276,-2.44 0.519,0.081 1.169,-2.95 -3.817,-1.712 -12.495,-11.072 -17.108,-14.516 -5.514,-4.118 -15.294,-9.831 -22.189,-10.976 -12.988,-2.156 -32.177,18.919 -36.308,29.908z"/>
   <path class="fil18" d="M243.343 285.264l9.732 -0.714 0.211 7.517 -9.796 0.035 -0.147 -6.838zm0.061 -10.459l10.015 0.217 -0.683 6.774 -9.23 -0.563 -0.102 -6.428zm0.127 -3.282c-2.082,-13.644 10.871,-15.197 9.876,0.273l-9.876 -0.273zm-2.162 22.672l14.303 0.353c1.36,-5.266 0.815,-27.699 -0.726,-33.015 -7.541,-5.869 -14.096,-3.312 -14.461,6.424 -0.21,5.613 -1.046,22.047 0.884,26.238z"/>
   <path class="fil22" d="M358.288 168.005l0.165 2.88c10.897,-8.303 25.447,-20.328 38.755,-24.73 10.268,-3.397 18.721,7.291 28.359,17.285 2.503,2.596 4.49,6.871 7.401,8.666l-0.018 -4.101c-0.906,-0.468 -12.401,-13.881 -14.784,-16.169 -6.454,-6.196 -12.012,-12.019 -22.138,-9.642 -14.098,3.309 -37.084,25.701 -37.74,25.811z"/>
   <path class="fil23" d="M156.012 330.963c4.6,1.786 26.616,1.097 32.814,0.502l-0.086 -7.323c-5.211,-1.116 -28.426,-1.281 -33.403,0.25l0.675 6.571z"/>
   <path class="fil23" d="M325.803 331.184c4.118,1.119 28.471,1.147 32.648,-0.111l0.065 -6.745c-4.852,-1.559 -28.109,-1.499 -33.297,-0.001l0.584 6.857z"/>
   <path class="fil24" d="M241.369 294.195l0.768 3.989c-4.596,3.226 -1.517,0.233 -3.002,3.406 14.728,-5.522 16.545,-1.325 27.334,-3.259 3.827,-3.026 3.824,-1.058 8.465,-3.432 1.556,-5.236 0.926,-11.401 0.698,-16.899 -0.173,-4.17 1.473,-13.204 -1.644,-15.459l0.091 31.962 -15.345 -0.264c-0.489,-5.688 -0.755,-26.429 0.423,-31.471l-4.211 -1.235c1.541,5.316 2.086,27.749 0.726,33.015l-14.303 -0.353z"/>
   <path class="fil14" d="M130.029 386.142c-0.857,8.189 8.034,31.812 15.971,34.144 5.55,-9.172 -9.034,-31.81 -15.971,-34.144z"/>
   <path class="fil25" d="M219.578 502.281c10.674,3.993 26.696,-10.826 28.195,-21.015 -6.299,0.489 -11.521,5.222 -16.842,8.636 -4.467,2.866 -12.202,6.155 -11.353,12.379z"/>
   <path class="fil25" d="M364 419.932c8.022,-1.38 16.891,-25.74 16.812,-33.761 -4.598,0.483 -10,9.795 -12.767,13.944 -3.764,5.643 -6.136,12.783 -4.045,19.817z"/>
   <path class="fil14" d="M264.12 481.24c2.834,10.683 16.498,24.28 28.459,21.255 0.473,-6.316 -7.48,-10.062 -12.261,-12.814 -5.343,-3.076 -10.003,-8.402 -16.198,-8.441z"/>
   <path class="fil26" d="M261.95 285.028c1.406,-2.247 6.98,-1.426 9.765,-0.787 0.978,3.755 1.202,4.36 -0.254,8.031l-10.064 0.529c-1.182,-6.722 -1.016,-6.014 0.553,-7.773zm-0.865 -10.944l10.743 -0.284 0.417 8.046c-4.749,1.066 -6.662,1.095 -10.942,-0.092 -1.323,-4.048 -1.387,-3.671 -0.218,-7.67zm0.367 -2.419c-1.434,-15.598 11.694,-14.458 10.279,0.347l-10.279 -0.347zm-2.295 -8.897c-1.178,5.042 -0.912,25.783 -0.423,31.471l15.345 0.264 -0.091 -31.962c-4.853,-5.481 -10.194,-6.061 -14.831,0.227z"/>
   <path class="fil27" d="M254.041 320.148c-0.831,6.615 -1.528,31.639 0.82,36.484l4.204 -0.152c1.976,-4.663 1.255,-29.761 0.675,-36.491l-5.699 0.159z"/>
   <path class="fil27" d="M243.525 356.597l5.123 -0.082c1.268,-4.46 1.114,-31.098 0.329,-36.549l-5.863 0.458 0.411 36.173z"/>
   <polygon class="fil15" points="232.751,356.491 238.711,356.5 238.607,319.946 232.603,320.654 "/>
   <polygon class="fil27" points="264.647,356.624 270.587,356.441 270.479,320.093 264.466,320.569 "/>
   <path class="fil28" d="M227.879 177c4.741,2.506 22.45,-0.045 29.12,-0.252 6.86,-0.213 25.385,3.005 29.926,0.252 -1.629,-3.009 -6.676,-2.642 -12.867,-3.053 -17.556,-1.167 -22.019,-0.85 -39.058,0.626 -4.666,0.404 -5.459,-0.702 -7.121,2.427z"/>
   <polygon class="fil15" points="281.109,320.135 275.169,320.313 275.558,356.672 281.109,356.633 "/>
   <path class="fil29" d="M144.134 119.005c0.784,2.729 -0.603,2.057 1.673,1.895 3.01,-2.517 21.192,-16.027 23.551,-16.603 6.152,-1.505 8.598,3.925 13.124,6.222 7.699,3.911 8.17,-2.416 14.536,-3.786 6.228,1.898 10.651,9.099 15.266,13.278l0.572 -2.55c-6.745,-3.74 -7.763,-13.842 -18.887,-12.372 -5.963,4.006 -5.856,5.62 -12.873,0.852 -5.263,-3.575 -7.041,-6.288 -13.856,-3.614 -8.872,3.481 -18.843,15.223 -23.106,16.678z"/>
   <path class="fil30" d="M169.163 273.722l6.913 0.54 -0.74 7.235 -6.452 -0.597 0.279 -7.178zm0.654 -9.777c3.588,-1.29 2.197,-1.426 5.225,0.187 1.47,3.199 1.286,3.928 0.398,7.471l-6.312 -0.297 0.689 -7.361zm-3.254 19.591l11.284 0.804c1.368,-6.362 3.317,-24.716 -5.746,-24.171 -8.734,0.526 -6.135,17.01 -5.538,23.367z"/>
   <path class="fil31" d="M289.609 357.124c2.392,-1.998 1.249,1.185 1.829,-4.037 0.56,-5.034 -1.009,-20.413 0.563,-29.725l16.139 0.137c0.034,7.016 -0.85,29.194 0.98,34.617 4.012,1.441 6.024,1.159 10.196,0.22l0.76 -35.444c-0.791,-4.263 1.653,-1.8 -1.955,-3.248l0.31 37.532 -8.963 0.086 -0.304 -35.032 -18.749 0.015 -0.806 34.879z"/>
   <path class="fil32" d="M326.874 357c-1.852,-4.144 -0.97,-13.885 -0.785,-18.999l31.993 0.203 -0.346 19.637 -30.862 -0.841zm-2.132 0.281c3.974,2.428 28.691,2.639 33.957,1.529 1.807,-4.673 1.887,-17.159 0.203,-21.876 -5.129,-1.24 -28.781,-1.189 -34.26,0.061l0.1 20.286z"/>
   <path class="fil30" d="M338.967 309.022l6.113 -0.382 0.408 7.332 -6.327 0.161 -0.194 -7.111zm0.34 -3.354c-0.881,-4.378 -0.365,-7.355 4.146,-7.058 2.635,2.558 2.203,3.104 1.925,7.031l-6.071 0.027zm8.237 12.94c0.965,-5.708 3.113,-23.196 -5.541,-23.019 -8.086,0.166 -6.322,17.221 -5.551,22.985 3.978,1.119 7.078,1.008 11.092,0.034z"/>
   <path class="fil33" d="M318.35 316.743l0.375 -4.805c-5.384,-0.701 -27.544,-1.388 -31.62,0.855l0.466 3.685c4.655,1.384 25.395,1.243 30.779,0.265z"/>
   <path class="fil15" d="M310.122 322.793c2.155,10.355 0.16,21.487 1.053,32.037l4.915 0.216 0.366 -33.085 -6.334 0.832z"/>
   <path class="fil30" d="M169.215 316.189l-0.001 -7.683 6.306 -0.254c0.941,3.687 1.024,4.457 -0.331,7.87l-5.974 0.067zm0.346 -10.707c-0.702,-4.299 -0.803,-3.779 1.384,-7.214l4.385 0.976 0.116 6.432 -5.885 -0.194zm-2.5 -7.141c-0.456,6.403 -1.402,14.33 0.153,20.403l10.361 0.085c1.342,-4.725 0.891,-10.134 0.877,-14.874 -0.022,-7.348 -2.599,-8.741 -9.447,-8.077l-1.944 2.463z"/>
   <path class="fil25" d="M448.481 292.583c-0.132,-7.379 -3.786,-22.495 -11.481,-24.042 -4.635,8.198 5.541,23.754 11.481,24.042z"/>
   <polygon class="fil27" points="202.758,321.934 197.956,322.926 197.911,354.997 203.036,355.089 "/>
   <path class="fil25" d="M62 292.987c6.634,-3.47 13.309,-16.395 11.874,-24.967 -4.898,0.222 -7.6,4.76 -9.24,9.477 -1.535,4.413 -4.41,11.396 -2.634,15.49z"/>
   <polygon class="fil33" points="196.276,316.856 226.677,316.804 226.932,311.618 196.076,311.618 "/>
   <path class="fil34" d="M119.168 297.94l11.564 0.209c0.432,-5.417 1.502,-14.018 -5.769,-14.37 -7.462,-0.361 -6.415,8.908 -5.795,14.161z"/>
   <path class="fil34" d="M119.286 307.79c4.02,4.195 3.546,3.738 4.065,10.233l7.368 -0.38 -0.278 -16.44 -11.219 0.282 0.064 6.305z"/>
   <path class="fil25" d="M460.511 289.443c9.414,-0.331 14.686,-12.436 13.222,-21.272 -4.871,0.466 -6.372,3.466 -8.77,7.804 -2.349,4.247 -4.608,8.808 -4.452,13.468z"/>
   <path class="fil6" d="M226 509.996c3.02,1.929 19.992,2.002 25.59,2.004l0.258 0 -5.848 -12.793c-2.819,1.011 -5.938,4.673 -9.086,6.688 -3.429,2.193 -6.935,3.281 -10.914,4.101z"/>
   <path class="fil28" d="M320.031 227c3.201,2.08 41.172,2.097 44.918,0 -4.143,-3.372 -16.01,-2.388 -21.949,-2.383 -4.645,0.004 -20.906,-1.319 -22.969,2.383z"/>
   <path class="fil34" d="M388.032 317.906c1.733,-10.316 6.763,-8.001 4.812,-16.763l-10.674 0.319 0.209 16.384 5.653 0.06z"/>
   <path class="fil6" d="M260.744 512l0.256 0 0.273 0c5.804,-0.003 21.759,-0.082 24.727,-2.034 -11.045,-1.586 -12.571,-7.118 -19.855,-10.057l-5.401 12.091z"/>
   <path class="fil28" d="M149.375 227c3.432,2.44 16.525,0.907 21.625,0.93 6.544,0.03 18.319,2.074 23.329,-0.93 -5.371,-3.946 -26.238,-2.371 -34.329,-1.937 -2.014,0.108 -4.095,0.197 -6.098,0.328 -5.948,0.388 -3.115,0.591 -4.527,1.609z"/>
   <path class="fil14" d="M49.35 289.319c-0.06,-4.893 -2.004,-7.979 -4.42,-12.212 -2.435,-4.267 -3.974,-8.38 -8.691,-7.922 -0.993,8.457 4.035,20.087 13.111,20.134z"/>
   <path class="fil35" d="M257.188 481.261c-3.935,1.133 -3.309,-0.031 -4.212,5.019 -0.943,5.27 -0.509,13.739 2.995,17.785 4.488,-3.761 5.823,-18.108 1.217,-22.804z"/>
   <path class="fil36" d="M339.123 264.478l1.009 -1.438 4.776 1.275c3.67,4.033 1.568,3.711 1.46,8.687 -0.104,4.786 1.162,3.769 -0.58,9.102 -3.84,1.355 -3.658,1.447 -7.433,-0.148 -1.426,-4.934 -0.355,-4.496 -0.369,-8.955 -0.012,-4.039 -1.988,-6.173 1.137,-8.523zm-2.661 19.16c4.168,1.22 7.014,1.176 11.197,0.089 0.918,-5.846 3.054,-23.71 -5.596,-23.571 -8.547,0.136 -6.477,17.468 -5.601,23.482z"/>
   <path class="fil37" d="M268.467 463.55c4.237,1.835 4.791,2.025 8.445,-0.724 2.067,-4.986 3.076,-8.222 -1.231,-11.499 -7.71,0.222 -7.814,5.29 -7.214,12.223z"/>
   <polygon class="fil34" points="211.433,298.46 222.438,298.812 222.466,288.494 211.591,288.105 "/>
   <polygon class="fil34" points="303.771,298.522 303.475,288.162 292.861,288.248 293.179,299.083 "/>
   <path class="fil38" d="M383.638 287.369l-0.046 9.464 9.077 0.322 -0.148 -10.271c-1.021,-4.051 -7.214,-4.684 -8.883,0.485z"/>
   <path class="fil2" d="M285.365 463.615c4.401,1.694 3.81,1.914 8.111,-0.187 7.327,-14.118 -9.126,-19.082 -8.111,0.187z"/>
   <polygon class="fil39" points="292.798,284.98 303.54,284.954 303.887,275.174 293.151,274.692 "/>
   <path class="fil34" d="M212.133 271.765l10.241 0.089c1.726,-16.191 -13.885,-13.559 -10.241,-0.089z"/>
   <path class="fil34" d="M293.286 271.763l10.02 -0.026c3.994,-13.324 -13.026,-15.827 -10.02,0.026z"/>
   <path class="fil39" d="M261.452 271.665l10.279 0.347c1.415,-14.805 -11.713,-15.945 -10.279,-0.347z"/>
   <path class="fil40" d="M224.645 458.157c0.702,10.233 -9.358,5.315 -13.53,3.927 1.192,6.976 16.964,5.791 15.239,-4.526 -3.907,-4.566 -6.526,-2.708 -11.996,-4.87l-0.101 -3.685c5.076,-4.206 8.742,-1.444 13.896,-1.017 -0.007,-0.014 1.114,-3.746 -8.14,-2.863 -2.57,0.245 -6.195,1.601 -7.305,3.683 -3.839,7.206 8.307,6.151 11.937,9.351z"/>
   <path class="fil41" d="M323.296 119.005c0.994,3.547 2.45,1.646 9.601,-3.099 4.087,-2.711 6.201,-4.435 11.135,-5.117 18.176,14.302 13.675,11.689 14.898,9.216 -5.21,-2.442 -9.22,-11.773 -16.896,-11.192 -6.522,0.493 -14.693,10.115 -18.738,10.192z"/>
   <path class="fil34" d="M243.531 271.523l9.876 0.273c0.995,-15.47 -11.958,-13.917 -9.876,-0.273z"/>
   <path class="fil30" d="M339.522 250.45c-1.806,-5.005 -0.804,-6.797 4.455,-6.443 2.149,2.613 2.535,2.608 1.202,5.966 -3.146,1.904 -1.925,1.734 -5.657,0.477zm-3.522 -0.419c5.914,8.071 14.254,2.789 12.028,-4.856 -1.64,-5.633 -12.298,-7.191 -12.028,4.856z"/>
   <path class="fil42" d="M174.085 243.668c2.763,2.994 3.416,3.772 0.854,7.13l-4.884 0.416c-2.36,-5.375 -1.021,-6.784 4.03,-7.546zm1.279 9.776c6.244,-4.666 4.247,-12.758 -5.388,-12.235 -6.132,6.93 -3.975,14.066 5.388,12.235z"/>
   <path class="fil43" d="M339.234 274.506l5.519 -0.273 0.605 6.851 -6.235 0.267 0.111 -6.845zm5.674 -10.191l0.625 5.8c-3.144,1.554 -2.252,1.306 -6.398,0.53l-0.012 -6.167c-3.125,2.35 -1.149,4.484 -1.137,8.523 0.014,4.459 -1.057,4.021 0.369,8.955 3.775,1.595 3.593,1.503 7.433,0.148 1.742,-5.333 0.476,-4.316 0.58,-9.102 0.108,-4.976 2.21,-4.654 -1.46,-8.687z"/>
   <path class="fil44" d="M285.365 463.615c-1.015,-19.269 15.438,-14.305 8.111,-0.187 -4.301,2.101 -3.71,1.881 -8.111,0.187zm-0.027 2.128c4.553,0.681 6.123,0.735 9.68,-1.668 3.343,-6.178 4.742,-15.935 -5.752,-13.86 -6.155,1.216 -7.699,10.881 -3.928,15.528z"/>
   <path class="fil44" d="M268.467 463.55c-0.6,-6.933 -0.496,-12.001 7.214,-12.223 4.307,3.277 3.298,6.513 1.231,11.499 -3.654,2.749 -4.208,2.559 -8.445,0.724zm-1.519 1.604c4.116,1.73 6.808,1.119 10.87,-0.363 2.147,-4.014 3.226,-8.831 1.727,-13.349 -10.651,-5.755 -14.768,4.641 -12.597,13.712z"/>
   <path class="fil45" d="M259.173 220.869l1.142 3.291c-3.234,2.753 -1.437,3.365 -4.6,0.282l-1.554 1.643c4.469,1.206 1.535,-0.738 2.236,2.879 0.156,0.803 -0.318,3.901 -0.402,4.761l-2.445 -0.72c1.604,2.29 5.887,1.674 8.149,1.034l-3.285 -0.383 0.501 -7.226 5.607 3.25 0.526 2.791c2.787,-1.653 2.182,-0.994 3.512,-4.239 -3.56,-0.85 -4.653,-1.879 -7.334,-4.362 2.678,-3.148 2.604,-0.851 4.613,-5.477l-1.278 -0.095 -5.388 2.571z"/>
   <path class="fil44" d="M248.841 465.629c2.613,-4.607 1.487,-20.01 11.475,-12.953 1.495,4.926 -0.91,7.868 -0.288,13.134 0.989,-0.963 0.841,1.878 2.16,-5.788 0.556,-3.234 0.744,-4.093 0.597,-7.467 -3.904,-3.546 -5.494,-3.451 -10.406,-1.665 -0.017,-3.15 0.815,-3.269 -0.372,-5.526 -2.26,3.203 -4.462,17.901 -3.166,20.265z"/>
   <polygon class="fil34" points="243.49,292.102 253.286,292.067 253.075,284.55 243.343,285.264 "/>
   <path class="fil18" d="M265.199 415.991c3.611,-0.567 6.83,-2.073 10.325,-3.493 8.228,-3.344 7.389,-0.243 9.409,-4.509 -6.458,-0.271 -17.765,0.016 -19.734,8.002z"/>
   <polygon class="fil39" points="243.506,281.233 252.736,281.796 253.419,275.022 243.404,274.805 "/>
   <path class="fil44" d="M232.615 465.482c5.483,1.382 9.146,1.164 11.107,-4.474 -3.811,1.538 -5.33,5.51 -10.261,2.555 -2.082,-2.526 -0.017,-14.355 6.952,-12.027 4.574,1.527 0.244,1.463 4.443,3.608 -1.272,-12.19 -20.046,-2.128 -12.241,10.338z"/>
   <path class="fil39" d="M220.945 276.606c-6.377,-0.476 -9.525,-1.462 -8.415,6.791l9.075 -0.256 -0.66 -6.535z"/>
   <path class="fil46" d="M250.995 215.427c-2.585,2.011 -1.2,1.71 -3.816,4.9l6.575 1.601 3.788 -0.076 0.502 -6.855c-0.697,0.515 -1.384,-1.338 -1.008,2.08 0.524,4.756 1.096,2.862 2.137,3.792l-1.02 -7.082 3.132 -0.871c-2.708,-1.483 -4.9,-2.156 -7.119,0.326l2.55 0.596 -0.552 6.243c-2.581,-0.867 -5.169,-1.726 -5.169,-4.654z"/>
   <polygon class="fil39" points="261.528,280.853 271.033,281.164 271.255,275.197 261.772,274.924 "/>
   <path class="fil47" d="M221.605 283.141l-9.075 0.256c-1.11,-8.253 2.038,-7.267 8.415,-6.791l0.66 6.535zm-9.73 1.896l10.475 -0.009 0.084 -10.074 -10.185 -0.717c-1.546,4.152 -1.354,6.762 -0.374,10.8z"/>
   <polygon class="fil39" points="261.95,285.028 262.246,291.568 270.532,291.368 271.178,285.309 "/>
   <path class="fil48" d="M175.189 316.122c1.355,-3.413 1.272,-4.183 0.331,-7.87l-6.306 0.254 0.001 7.683 5.974 -0.067z"/>
   <path class="fil34" d="M169.128 271.306l6.312 0.297c0.888,-3.543 1.072,-4.272 -0.398,-7.471 -3.028,-1.613 -1.637,-1.477 -5.225,-0.187l-0.689 7.361z"/>
   <path class="fil48" d="M392.521 286.884l0.148 10.271 -9.077 -0.322 0.046 -9.464c-2.554,1.115 -2.061,8.69 -1.093,10.116 1.302,1.917 8.428,1.068 10.937,0.955 1.183,-3.781 1.647,-9.016 -0.961,-11.556z"/>
   <polygon class="fil34" points="339.161,316.133 345.488,315.972 345.08,308.64 338.967,309.022 "/>
   <path class="fil49" d="M170.055 251.214l4.884 -0.416c2.562,-3.358 1.909,-4.136 -0.854,-7.13 -5.051,0.762 -6.39,2.171 -4.03,7.546z"/>
   <path class="fil34" d="M268.56 228.232l0.165 -8.809 -2.886 -1.03c-2.009,4.626 -1.935,2.329 -4.613,5.477 2.681,2.483 3.774,3.512 7.334,4.362z"/>
   <path class="fil38" d="M339.123 264.478l0.012 6.167c4.146,0.776 3.254,1.024 6.398,-0.53l-0.625 -5.8 -4.776 -1.275 -1.009 1.438z"/>
   <path class="fil34" d="M339.522 250.45c3.732,1.257 2.511,1.427 5.657,-0.477 1.333,-3.358 0.947,-3.353 -1.202,-5.966 -5.259,-0.354 -6.261,1.438 -4.455,6.443z"/>
   <path class="fil34" d="M339.307 305.668l6.071 -0.027c0.278,-3.927 0.71,-4.473 -1.925,-7.031 -4.511,-0.297 -5.027,2.68 -4.146,7.058z"/>
   <path class="fil50" d="M261.95 285.028l9.228 0.281 -0.646 6.059 -8.286 0.2 -0.296 -6.54zm0 0c-1.569,1.759 -1.735,1.051 -0.553,7.773l10.064 -0.529c1.456,-3.671 1.232,-4.276 0.254,-8.031 -2.785,-0.639 -8.359,-1.46 -9.765,0.787z"/>
   <polygon class="fil39" points="339.123,281.351 345.358,281.084 344.753,274.233 339.234,274.506 "/>
   <path class="fil49" d="M169.561 305.482l5.885 0.194 -0.116 -6.432 -4.385 -0.976c-2.187,3.435 -2.086,2.915 -1.384,7.214z"/>
   <path class="fil50" d="M261.772 274.924l9.483 0.273 -0.222 5.967 -9.505 -0.311 0.244 -5.929zm-0.687 -0.84c-1.169,3.999 -1.105,3.622 0.218,7.67 4.28,1.187 6.193,1.158 10.942,0.092l-0.417 -8.046 -10.743 0.284z"/>
   <polygon class="fil47" points="259.173,220.869 264.561,218.298 265.693,215.481 261.285,212.916 258.153,213.787 "/>
   <path class="fil47" d="M253.754 221.928l-6.575 -1.601c-0.628,1.549 -1.782,3.273 0.143,6.361 1.132,1.815 0.307,0.44 1.982,1.894l4.45 -6.654z"/>
   <polygon class="fil47" points="261.699,234.039 265.048,232.471 264.522,229.68 258.915,226.43 258.414,233.656 "/>
   <path class="fil51" d="M428.532 293.227l3.653 -1.047c2.881,5.062 -0.702,2.919 4.46,5.815 -0.727,-3.713 -1.755,-7.707 -4.625,-10.289 -2.856,2.44 -2.533,2.053 -3.488,5.521z"/>
   <path class="fil52" d="M253.55 233.005l2.445 0.72c0.084,-0.86 0.558,-3.958 0.402,-4.761 -0.701,-3.617 2.233,-1.673 -2.236,-2.879 -1.318,3.999 -2.288,0.094 -4.459,5.214l3.848 1.706z"/>
   <path class="fil34" d="M250.995 215.427c0,2.928 2.588,3.787 5.169,4.654l0.552 -6.243 -2.55 -0.596 -3.171 2.185z"/>
   <path class="fil34" d="M174.068 274.758l-3.191 -0.169c-1.757,3.056 -1.356,1.471 -0.793,5.427l4.788 -0.186c0.536,-3.671 0.903,-2.167 -0.804,-5.072z"/>
   <path class="fil53" d="M247.618 416.588c-1.64,-3.461 -2.89,-3.843 -6.803,-5.537 -2.816,-1.219 -5.546,-2.143 -7.499,-1.238l14.302 6.775z"/>
   <path class="fil48" d="M170.084 280.016c-0.563,-3.956 -0.964,-2.371 0.793,-5.427l3.191 0.169c1.707,2.905 1.34,1.401 0.804,5.072l-4.788 0.186zm-1.2 0.884l6.452 0.597 0.74 -7.235 -6.913 -0.54 -0.279 7.178z"/>
   <path class="fil51" d="M438.334 343.996l-4.723 -0.211c1.157,3.427 0.42,2.902 3.709,4.355l1.014 -4.144z"/>
   <path class="fil54" d="M205.66 408.788c-1.375,-4.196 -2.025,-4.149 -4.88,-0.788 1.494,1.197 -0.203,0.686 2.209,1.22 2.481,0.55 1.772,-0.194 2.671,-0.432z"/>
   <path class="fil55" d="M312.249 407.931c-2.971,-3.322 -1.793,-2.643 -4.409,-1.045 1.261,1.505 -0.749,5.014 4.409,1.045z"/>
  </g>
 </g>
</svg>
